<?xml version="1.0" encoding="utf-8"?>
<!-- Generator: Adobe Illustrator 16.0.0, SVG Export Plug-In . SVG Version: 6.00 Build 0)  -->
<!DOCTYPE svg PUBLIC "-//W3C//DTD SVG 1.1//EN" "http://www.w3.org/Graphics/SVG/1.1/DTD/svg11.dtd">
<svg version="1.1" id="Layer_1" xmlns="http://www.w3.org/2000/svg" xmlns:xlink="http://www.w3.org/1999/xlink" x="0px" y="0px"
	 width="600px" height="600px" viewBox="0 0 600 600" enable-background="new 0 0 600 600" xml:space="preserve">
<g>
	<g>
		<g>
			<path d="M163.321,238.717c-0.555-2.728-1.302-5.772-2.681-7.978c-1.355-2.09-3.093-3.392-5.269-2.933
				c-3.56,0.873-3.991,4.416-2.927,9.288c0.618,2.833,2.646,5.477,5.319,8.229c2.673,2.751,5.968,5.5,9.268,8.501
				c3.934,3.583,7.832,7.316,10.934,11.097c3.104,3.78,5.456,7.832,6.293,12.396c1.027,5.591,1.039,11.01-0.904,15.39
				c-1.947,4.387-5.712,7.699-12.487,9.125c-7.919,1.679-13.046-0.204-16.662-4.126c-3.609-3.917-5.644-9.747-7.132-15.951
				c4.101-1.382,8.215-2.727,12.344-4.033c0.773,3.511,1.67,6.996,3.181,9.396c1.418,2.54,3.211,4.046,5.898,3.478
				c3.734-0.786,4.356-4.928,3.275-10.273c-0.553-2.729-2.626-5.623-5.236-8.517c-1.412-1.365-2.855-2.838-4.428-4.282
				c-3.265-2.861-6.905-6.103-10.796-9.624c-3.89-3.521-7.121-7.292-9.53-11.372c-1.254-1.969-2.167-4.136-2.703-6.394
				c-1.071-4.513-1.091-9.64,0.998-14.054c2.111-4.296,6.064-7.94,12.667-9.456c8.426-1.893,13.986,0.253,17.526,4.183
				c3.568,4.051,5.349,9.507,6.21,14.183C172.079,236.192,167.693,237.435,163.321,238.717z"/>
			<path d="M183.849,224.728c-0.724-4.23-1.448-8.46-2.172-12.69c13.563-2.322,27.173-4.271,40.816-5.846
				c0.492,4.263,0.985,8.527,1.477,12.79c-4.384,0.506-8.765,1.052-13.141,1.637c3.195,23.915,6.39,47.83,9.585,71.745
				c-4.183,0.559-8.362,1.158-12.537,1.796c-3.646-23.851-7.292-47.701-10.938-71.552
				C192.57,223.275,188.207,223.982,183.849,224.728z"/>
			<path d="M239.494,290.092c1.355-28.716,3.262-57.447,5.721-86.178c5.785-0.491,11.575-0.917,17.367-1.274
				c6.625,28.064,12.702,56.209,18.23,84.419c-4.091,0.174-8.181,0.385-12.27,0.633c-1.13-5.742-2.281-11.481-3.451-17.218
				c-4.154,0.267-8.306,0.572-12.456,0.914c-0.321,5.846-0.621,11.692-0.901,17.537
				C247.651,289.277,243.571,289.666,239.494,290.092z M256.685,230.82c-0.18-0.723-0.36-1.446-0.541-2.169
				c-0.254,0.018-0.508,0.037-0.762,0.056c-0.073,0.742-0.146,1.483-0.218,2.226c-0.644,9.043-1.239,18.087-1.785,27.129
				c3.01-0.24,6.021-0.461,9.033-0.663C260.551,248.532,258.642,239.672,256.685,230.82z"/>
			<path d="M315.08,286.482c-2.079-12.005-4.275-24-6.589-35.984c-1.19,0.001-2.382,0.005-3.573,0.013
				c0.073,11.986,0.146,23.972,0.22,35.958c-4.211,0.025-8.422,0.091-12.632,0.196c-0.708-28.411-1.417-56.821-2.126-85.231
				c4.746-0.118,9.492-0.192,14.238-0.221c17.067-0.062,24.091,8.744,23.617,24.824c-0.227,8.468-2.82,16.046-7.951,19.211
				c2.642,13.808,5.117,27.63,7.428,41.464C323.501,286.596,319.291,286.519,315.08,286.482z M304.848,238.912
				c1.879-0.012,4.38-0.25,6.393-1.867c2.012-1.618,3.677-4.736,3.728-10.767c0.051-6.032-1.599-9.294-3.667-10.924
				c-2.065-1.631-4.664-1.742-6.607-1.729C304.744,222.053,304.796,230.482,304.848,238.912z"/>
			<path d="M339.032,214.672c0.173-4.288,0.345-8.577,0.517-12.865c13.703,0.55,27.395,1.473,41.059,2.769
				c-0.405,4.272-0.811,8.545-1.215,12.818c-4.392-0.417-8.785-0.794-13.182-1.132c-1.85,24.057-3.7,48.113-5.55,72.17
				c-4.202-0.323-8.406-0.607-12.612-0.851c1.396-24.087,2.793-48.174,4.189-72.262
				C347.838,215.064,343.436,214.849,339.032,214.672z"/>
			<path d="M430.261,210.95c-3.614,22.29-7.229,44.579-10.845,66.869c-0.675,3.415-1.887,6.392-3.597,8.821
				c-1.42,2.124-3.396,4.042-5.982,5.411c-2.604,1.483-5.88,2.054-10.054,1.483c-4.176-0.569-7.291-2.01-9.402-4.136
				c-2.122-2.01-3.393-4.375-4.19-6.8c-0.994-2.799-1.363-5.991-1.1-9.463c2.489-22.443,4.978-44.886,7.467-67.329
				c4.725,0.524,9.445,1.092,14.162,1.706c-2.912,22.393-5.824,44.785-8.735,67.177c-0.314,2.416,0.071,4.103,1.087,5.524
				c0.515,0.654,1.295,1.108,2.358,1.254c2.243,0.307,3.499-0.918,4.219-2.575c0.47-0.753,0.736-1.769,0.917-3.033
				c3.193-22.354,6.387-44.708,9.58-67.062C420.855,209.47,425.562,210.188,430.261,210.95z"/>
			<path d="M447.08,213.873c4.686,0.869,9.366,1.783,14.04,2.742c6.1,1.249,11.911,3.951,15.652,8.856
				c3.751,4.905,5.271,11.96,2.986,21.431c-2.284,9.473-6.723,14.96-11.97,17.804c-5.256,2.84-11.26,3.184-16.947,2.02
				c-2.283,11.136-4.567,22.272-6.852,33.408c-4.146-0.85-8.299-1.661-12.456-2.432C436.716,269.758,441.897,241.815,447.08,213.873
				z M453.406,254.226c4.064,0.835,6.789,0.715,8.69-0.892c1.875-1.491,2.923-4.466,3.944-9.111c1.021-4.645,1.37-8.014,0.29-10.386
				c-1.078-2.369-3.563-3.858-7.774-4.723C456.84,237.484,455.123,245.855,453.406,254.226z"/>
		</g>
	</g>
	<g>
		<path d="M438.804,315.239c-84.367-13.459-170.347-13.408-254.705,0.135c3.053,18.973,6.094,37.941,9.144,56.918
			c78.327-12.582,158.149-12.625,236.481-0.121C432.747,353.192,435.776,334.216,438.804,315.239z"/>
		<path d="M225.269,381.688c-0.333-2.811-0.67-5.615-0.996-8.42c-10.336,1.229-20.644,2.676-30.932,4.334
			c-1.422,0.23-2.849,0.461-4.27,0.701c-0.234-1.396-0.471-2.787-0.701-4.182c-2.415-14.4-4.828-28.801-7.242-43.203
			c-13.975,2.342-27.896,5.064-41.757,8.162c7.327,7.691,14.485,15.473,21.461,23.352c-3.249,10.592-6.296,21.203-9.132,31.811
			C176.044,388.806,200.601,384.614,225.269,381.688z"/>
		<path d="M484.37,339.081c-13.865-3.098-27.789-5.82-41.756-8.162c-2.412,14.402-4.83,28.803-7.244,43.203
			c-0.232,1.395-0.467,2.785-0.701,4.182c-1.418-0.24-2.844-0.471-4.27-0.701c-10.287-1.658-20.602-3.105-30.93-4.334
			c-0.334,2.805-0.668,5.609-1,8.42c24.67,2.926,49.226,7.117,73.574,12.555c-2.838-10.607-5.889-21.219-9.135-31.811
			C469.884,354.554,477.042,346.772,484.37,339.081z"/>
		<path d="M225.141,396.323c-2.66,0.369-5.319,0.75-7.981,1.154c-1.205,1.328-2.406,2.662-3.599,3.986
			c1.277,0.938,2.548,1.879,3.812,2.828c6.34-0.969,12.699-1.84,19.068-2.627c0.061-1.279,0.135-2.566,0.195-3.844
			c3.136-0.379,6.27-0.736,9.405-1.078c0.075-2.277,0.146-4.545,0.218-6.826c-7.014,0.734-14.016,1.588-21.014,2.561
			C225.21,393.755,225.179,395.044,225.141,396.323z"/>
		<path d="M403.743,396.323c-0.029-1.279-0.064-2.568-0.102-3.846c-6.992-0.973-14-1.826-21.014-2.561
			c0.072,2.281,0.15,4.549,0.219,6.826c3.139,0.342,6.271,0.699,9.401,1.078c0.069,1.277,0.13,2.564,0.202,3.844
			c6.364,0.787,12.717,1.658,19.064,2.627c1.265-0.949,2.533-1.891,3.811-2.828c-1.193-1.324-2.391-2.658-3.598-3.986
			C409.065,397.073,406.405,396.692,403.743,396.323z"/>
	</g>
	<g>
		<g>
			<path fill="#FFFFFF" d="M227.925,327.305c0.716-0.067,1.351,0.1,1.903,0.502c0.552,0.401,0.856,0.918,0.913,1.549
				c0.291,3.22,0.582,6.44,0.873,9.66c0.06,0.665-0.143,1.243-0.605,1.737c-0.463,0.494-1.047,0.773-1.752,0.839
				c-3.272,0.306-6.542,0.629-9.812,0.97c0.26,2.486,0.519,4.974,0.779,7.46c-1.729,0.181-3.457,0.366-5.185,0.557
				c-0.799-7.239-1.599-14.479-2.397-21.718C217.733,328.299,222.827,327.779,227.925,327.305z M225.711,332.185
				c-2.425,0.233-4.85,0.477-7.273,0.729c0.175,1.674,0.35,3.349,0.525,5.022c2.41-0.252,4.821-0.493,7.232-0.726
				C226.034,335.535,225.873,333.859,225.711,332.185z"/>
			<path fill="#FFFFFF" d="M245.286,347.764c-1.715,0.13-3.431,0.265-5.146,0.405c-0.592-7.26-1.185-14.519-1.777-21.777
				c1.757-0.144,3.515-0.282,5.272-0.415C244.186,333.239,244.735,340.501,245.286,347.764z"/>
			<path fill="#FFFFFF" d="M271.838,346.153c-1.501,0.068-3.002,0.141-4.503,0.217c-3.518-4.761-7.09-9.502-10.716-14.22
				c0.304,4.924,0.608,9.848,0.913,14.771c-1.7,0.104-3.4,0.215-5.1,0.33c-0.491-7.267-0.982-14.533-1.474-21.8
				c2.51-0.17,5.021-0.329,7.532-0.479c2.564,3.354,5.102,6.72,7.612,10.095c-0.18-3.495-0.359-6.99-0.539-10.485
				c1.76-0.091,3.521-0.176,5.281-0.257C271.175,331.603,271.507,338.878,271.838,346.153z"/>
			<path fill="#FFFFFF" d="M289.646,331.067c-0.023-0.933-0.046-1.866-0.07-2.799c-2.501,0.062-5.001,0.135-7.502,0.219
				c0.14,4.197,0.28,8.395,0.419,12.592c2.465-0.082,4.931-0.153,7.397-0.215c-0.023-0.917-0.045-1.833-0.068-2.749
				c-1.06,0.026-2.12,0.055-3.18,0.085c-0.044-1.55-0.088-3.099-0.133-4.647c2.791-0.08,5.582-0.146,8.373-0.2
				c0.03,1.55,0.06,3.099,0.089,4.648c0.032,1.684,0.064,3.366,0.097,5.05c0.013,0.667-0.228,1.229-0.72,1.689
				s-1.088,0.697-1.79,0.713c-4.155,0.092-8.31,0.213-12.464,0.363c-0.701,0.025-1.311-0.177-1.829-0.607s-0.791-0.979-0.816-1.645
				c-0.224-5.729-0.448-11.458-0.672-17.188c-0.026-0.666,0.208-1.234,0.703-1.703c0.495-0.47,1.103-0.718,1.821-0.744
				c4.257-0.153,8.515-0.277,12.773-0.372c0.718-0.016,1.339,0.197,1.861,0.637c0.521,0.439,0.788,0.993,0.801,1.659
				c0.033,1.7,0.065,3.399,0.098,5.099C293.106,330.986,291.376,331.024,289.646,331.067z"/>
			<path fill="#FFFFFF" d="M332.405,323.615c0.719,0.017,1.329,0.256,1.831,0.718c0.502,0.463,0.744,1.012,0.728,1.644
				c-0.081,3.232-0.163,6.465-0.245,9.697c-0.017,0.667-0.284,1.218-0.8,1.655c-0.517,0.438-1.128,0.648-1.835,0.632
				c-3.282-0.073-6.564-0.129-9.847-0.166c-0.028,2.5-0.057,5-0.086,7.5c-1.735-0.021-3.471-0.035-5.206-0.044
				c0.039-7.283,0.079-14.566,0.119-21.85C322.179,323.43,327.292,323.501,332.405,323.615z M329.647,328.208
				c-2.434-0.048-4.866-0.085-7.3-0.112c-0.02,1.683-0.038,3.366-0.058,5.049c2.42,0.028,4.84,0.065,7.259,0.112
				C329.582,331.574,329.614,329.891,329.647,328.208z"/>
			<path fill="#FFFFFF" d="M356.841,346.37c-4.169-0.211-8.34-0.393-12.511-0.545c-0.7-0.025-1.294-0.264-1.78-0.714
				c-0.485-0.449-0.718-1.008-0.695-1.674c0.192-5.747,0.386-11.494,0.579-17.24c0.021-0.633,0.295-1.166,0.823-1.599
				c0.527-0.432,1.152-0.635,1.87-0.608c4.274,0.156,8.547,0.342,12.819,0.559c0.717,0.036,1.321,0.292,1.81,0.769
				c0.488,0.478,0.715,1.032,0.682,1.664c-0.308,5.741-0.615,11.483-0.923,17.226c-0.036,0.666-0.316,1.201-0.839,1.606
				C358.152,346.221,357.54,346.406,356.841,346.37z M347.116,341.277c2.448,0.097,4.896,0.203,7.344,0.319
				c0.199-4.178,0.398-8.356,0.598-12.535c-2.481-0.118-4.965-0.227-7.447-0.324C347.445,332.917,347.28,337.098,347.116,341.277z"
				/>
			<path fill="#FFFFFF" d="M385.934,348.325c-1.498-0.125-2.997-0.247-4.495-0.364c-2.878-5.175-5.811-10.336-8.799-15.482
				c-0.332,4.922-0.664,9.844-0.996,14.767c-1.7-0.115-3.4-0.225-5.101-0.33c0.448-7.27,0.896-14.538,1.346-21.808
				c2.511,0.154,5.021,0.32,7.531,0.496c2.11,3.656,4.194,7.32,6.25,10.99c0.271-3.489,0.544-6.979,0.815-10.468
				c1.758,0.137,3.516,0.279,5.272,0.427C387.15,333.811,386.542,341.067,385.934,348.325z"/>
			<path fill="#FFFFFF" d="M405.553,335.659c0.098-0.928,0.194-1.856,0.291-2.784c-2.491-0.261-4.983-0.511-7.476-0.75
				c-0.402,4.181-0.804,8.361-1.206,12.542c2.458,0.236,4.915,0.482,7.372,0.739c0.095-0.912,0.19-1.823,0.286-2.735
				c-1.057-0.11-2.112-0.219-3.169-0.325c0.156-1.542,0.312-3.084,0.468-4.626c2.78,0.28,5.561,0.574,8.34,0.882
				c-0.17,1.54-0.34,3.08-0.51,4.621c-0.186,1.673-0.37,3.347-0.555,5.021c-0.073,0.662-0.384,1.189-0.932,1.582
				c-0.549,0.393-1.172,0.551-1.869,0.476c-4.139-0.444-8.279-0.86-12.422-1.246c-0.699-0.065-1.277-0.344-1.736-0.838
				s-0.659-1.071-0.599-1.736c0.516-5.71,1.031-11.42,1.547-17.13c0.06-0.665,0.365-1.197,0.917-1.599
				c0.553-0.401,1.188-0.57,1.904-0.503c4.245,0.396,8.488,0.821,12.729,1.277c0.716,0.076,1.305,0.367,1.767,0.871
				c0.462,0.503,0.655,1.086,0.582,1.749c-0.187,1.689-0.373,3.379-0.56,5.068C409,336.025,407.276,335.84,405.553,335.659z"/>
		</g>
	</g>
	<g>
		<rect x="233.793" y="440.251" fill="none" width="161.322" height="34.602"/>
		<text transform="matrix(1 0 0 1 249.2051 466.71)" font-family="'LeagueGothic-Regular'" font-size="36" letter-spacing="1">SUPP* 2014</text>
	</g>
	<g>
		<path d="M322.076,108.898c-0.172-5.271-1.842-11.679-7.891-16.079c-5.998,4.362-7.693,10.701-7.889,15.946
			c-2.047,0.894-4.719,2.097-6.338,13.376l0.701,0.185c0,0,4.36-2.374,6.427-2.454v-1.72h0.312h0.544h6.242h5.944h0.841h0.016v1.72
			c2.066,0.08,6.426,2.454,6.426,2.454l0.701-0.185C326.573,111.408,324.078,109.799,322.076,108.898z M314.186,104.153
			c-1.197,0-2.167-0.97-2.167-2.167s0.97-2.167,2.167-2.167c1.196,0,2.166,0.97,2.166,2.167S315.382,104.153,314.186,104.153z"/>
		<path d="M316.203,128.951c-0.172-1.264-1.045-1.795-1.817-1.771c-0.765,0.028-1.621,0.629-1.698,1.886
			c-0.024,0.423-1.209,20.104-4.757,50.074c1.005-0.004,2.013-0.006,3.021-0.006c1.628-13.777,2.756-25.368,3.5-33.9
			c0.745,8.538,1.874,20.14,3.503,33.93c1.007,0.009,2.016,0.02,3.024,0.033c-3.553-30.001-4.739-49.708-4.764-50.131
			C316.213,129.028,316.209,128.99,316.203,128.951z"/>
		<path d="M484.051,496.653c-33.219,0-62.703-19.167-87.635-56.968c-10.751-16.301-20.668-36.058-29.681-59.082
			c-1.081-0.058-2.177-0.114-3.281-0.171c9.219,23.759,19.394,44.125,30.448,60.89c25.524,38.706,55.854,58.331,90.148,58.331
			c0.828,0,1.5-0.671,1.5-1.5S484.879,496.653,484.051,496.653z"/>
		<path d="M232.486,439.686c-24.932,37.801-54.416,56.968-87.634,56.968c-0.829,0-1.5,0.671-1.5,1.5s0.671,1.5,1.5,1.5
			c34.294,0,64.624-19.625,90.148-58.331c11.196-16.977,21.488-37.646,30.799-61.793c-1.087,0.04-2.176,0.085-3.266,0.129
			C253.423,403.086,243.383,423.162,232.486,439.686z"/>
		<path d="M314.186,378.933c-0.829,0-1.5,0.671-1.5,1.5v48.721c0,0.829,0.671,1.5,1.5,1.5c0.828,0,1.5-0.671,1.5-1.5v-48.721
			C315.686,379.604,315.014,378.933,314.186,378.933z"/>
		<path d="M314.186,458.793c-0.829,0-1.5,0.672-1.5,1.5v39.36c0,0.829,0.671,1.5,1.5,1.5c0.828,0,1.5-0.671,1.5-1.5v-39.36
			C315.686,459.465,315.014,458.793,314.186,458.793z"/>
	</g>
	<rect x="-15" y="-7" display="none" width="651" height="621"/>
</g>
</svg>
